<mxfile host="65bd71144e">
    <diagram id="tx7btMfvIQySa-xfECum" name="Страница 1">
        <mxGraphModel dx="2435" dy="844" grid="1" gridSize="10" guides="1" tooltips="1" connect="1" arrows="1" fold="1" page="1" pageScale="1" pageWidth="827" pageHeight="1169" math="0" shadow="0">
            <root>
                <mxCell id="0"/>
                <mxCell id="1" parent="0"/>
                <mxCell id="4" value="" style="edgeStyle=none;html=1;" edge="1" parent="1" source="2" target="3">
                    <mxGeometry relative="1" as="geometry"/>
                </mxCell>
                <mxCell id="2" value="Начало" style="ellipse;whiteSpace=wrap;html=1;" vertex="1" parent="1">
                    <mxGeometry x="354" y="20" width="120" height="50" as="geometry"/>
                </mxCell>
                <mxCell id="9" value="" style="edgeStyle=none;html=1;" edge="1" parent="1" source="3" target="8">
                    <mxGeometry relative="1" as="geometry"/>
                </mxCell>
                <mxCell id="3" value="&#10;&#10;&lt;div style=&quot;color: rgb(212, 212, 212); background-color: rgb(30, 30, 30); font-family: consolas, &amp;quot;courier new&amp;quot;, monospace; font-weight: normal; font-size: 14px; line-height: 19px;&quot;&gt;&lt;div&gt;&lt;span style=&quot;color: #569cd6&quot;&gt;float&lt;/span&gt;&lt;span style=&quot;color: #d4d4d4&quot;&gt; a, b, c;&lt;/span&gt;&lt;/div&gt;&lt;/div&gt;&#10;&#10;" style="rounded=0;whiteSpace=wrap;html=1;" vertex="1" parent="1">
                    <mxGeometry x="354" y="170" width="120" height="60" as="geometry"/>
                </mxCell>
                <mxCell id="5" value="" style="strokeWidth=2;html=1;shape=mxgraph.flowchart.annotation_2;align=left;labelPosition=right;pointerEvents=1;" vertex="1" parent="1">
                    <mxGeometry x="530" y="70" width="50" height="100" as="geometry"/>
                </mxCell>
                <mxCell id="6" value="" style="endArrow=none;dashed=1;html=1;entryX=0;entryY=0.5;entryDx=0;entryDy=0;entryPerimeter=0;" edge="1" parent="1" target="5">
                    <mxGeometry width="50" height="50" relative="1" as="geometry">
                        <mxPoint x="420" y="120" as="sourcePoint"/>
                        <mxPoint x="440" y="20" as="targetPoint"/>
                    </mxGeometry>
                </mxCell>
                <mxCell id="7" value="&#10;&#10;&lt;div style=&quot;color: rgb(212, 212, 212); background-color: rgb(30, 30, 30); font-family: consolas, &amp;quot;courier new&amp;quot;, monospace; font-weight: normal; font-size: 14px; line-height: 19px;&quot;&gt;&lt;div&gt;&lt;span style=&quot;color: #c586c0&quot;&gt;#include&lt;/span&gt;&lt;span style=&quot;color: #569cd6&quot;&gt; &lt;/span&gt;&lt;span style=&quot;color: #ce9178&quot;&gt;&amp;lt;iostream&amp;gt;&lt;/span&gt;&lt;/div&gt;&lt;div&gt;&lt;span style=&quot;color: #c586c0&quot;&gt;#include&lt;/span&gt;&lt;span style=&quot;color: #569cd6&quot;&gt; &lt;/span&gt;&lt;span style=&quot;color: #ce9178&quot;&gt;&amp;lt;cmath&amp;gt;&lt;/span&gt;&lt;/div&gt;&lt;div&gt;&lt;span style=&quot;color: #c586c0&quot;&gt;using&lt;/span&gt;&lt;span style=&quot;color: #d4d4d4&quot;&gt; &lt;/span&gt;&lt;span style=&quot;color: #569cd6&quot;&gt;namespace&lt;/span&gt;&lt;span style=&quot;color: #d4d4d4&quot;&gt; &lt;/span&gt;&lt;span style=&quot;color: #4ec9b0&quot;&gt;std&lt;/span&gt;&lt;span style=&quot;color: #d4d4d4&quot;&gt;;&lt;/span&gt;&lt;/div&gt;&lt;/div&gt;&#10;&#10;" style="text;whiteSpace=wrap;html=1;" vertex="1" parent="1">
                    <mxGeometry x="560" y="60" width="180" height="70" as="geometry"/>
                </mxCell>
                <mxCell id="11" value="" style="edgeStyle=none;html=1;" edge="1" parent="1" source="8" target="10">
                    <mxGeometry relative="1" as="geometry"/>
                </mxCell>
                <mxCell id="8" value="&#10;&#10;&lt;div style=&quot;color: rgb(212, 212, 212); background-color: rgb(30, 30, 30); font-family: consolas, &amp;quot;courier new&amp;quot;, monospace; font-weight: normal; font-size: 14px; line-height: 19px;&quot;&gt;&lt;div&gt;&lt;span style=&quot;color: #569cd6&quot;&gt;float&lt;/span&gt;&lt;span style=&quot;color: #d4d4d4&quot;&gt; fA, fB, fC;&lt;/span&gt;&lt;/div&gt;&lt;/div&gt;&#10;&#10;" style="rounded=0;whiteSpace=wrap;html=1;" vertex="1" parent="1">
                    <mxGeometry x="344" y="290" width="140" height="60" as="geometry"/>
                </mxCell>
                <mxCell id="13" value="" style="edgeStyle=none;html=1;" edge="1" parent="1" source="10">
                    <mxGeometry relative="1" as="geometry">
                        <mxPoint x="414" y="490" as="targetPoint"/>
                    </mxGeometry>
                </mxCell>
                <mxCell id="10" value="&#10;&#10;&lt;div style=&quot;color: rgb(212, 212, 212); background-color: rgb(30, 30, 30); font-family: consolas, &amp;quot;courier new&amp;quot;, monospace; font-weight: normal; font-size: 14px; line-height: 19px;&quot;&gt;&lt;div&gt;&lt;span style=&quot;color: #569cd6&quot;&gt;double&lt;/span&gt;&lt;span style=&quot;color: #d4d4d4&quot;&gt; eps = &lt;/span&gt;&lt;span style=&quot;color: #b5cea8&quot;&gt;0.000001&lt;/span&gt;&lt;span style=&quot;color: #d4d4d4&quot;&gt;;&lt;/span&gt;&lt;/div&gt;&lt;/div&gt;&#10;&#10;" style="rounded=0;whiteSpace=wrap;html=1;" vertex="1" parent="1">
                    <mxGeometry x="324" y="390" width="180" height="60" as="geometry"/>
                </mxCell>
                <mxCell id="16" value="" style="edgeStyle=none;html=1;" edge="1" parent="1" source="14" target="15">
                    <mxGeometry relative="1" as="geometry"/>
                </mxCell>
                <mxCell id="14" value="&#10;&#10;&lt;div style=&quot;color: rgb(212, 212, 212); background-color: rgb(30, 30, 30); font-family: consolas, &amp;quot;courier new&amp;quot;, monospace; font-weight: normal; font-size: 14px; line-height: 19px;&quot;&gt;&lt;div&gt;&lt;span style=&quot;color: #d4d4d4&quot;&gt;a = &lt;/span&gt;&lt;span style=&quot;color: #b5cea8&quot;&gt;2&lt;/span&gt;&lt;span style=&quot;color: #d4d4d4&quot;&gt;;&lt;/span&gt;&lt;/div&gt;&lt;/div&gt;&#10;&#10;" style="rounded=0;whiteSpace=wrap;html=1;" vertex="1" parent="1">
                    <mxGeometry x="354" y="490" width="120" height="60" as="geometry"/>
                </mxCell>
                <mxCell id="18" value="" style="edgeStyle=none;html=1;" edge="1" parent="1" source="15" target="17">
                    <mxGeometry relative="1" as="geometry"/>
                </mxCell>
                <mxCell id="15" value="&#10;&#10;&lt;div style=&quot;color: rgb(212, 212, 212); background-color: rgb(30, 30, 30); font-family: consolas, &amp;quot;courier new&amp;quot;, monospace; font-weight: normal; font-size: 14px; line-height: 19px;&quot;&gt;&lt;div&gt;&lt;span style=&quot;color: #d4d4d4&quot;&gt;b = &lt;/span&gt;&lt;span style=&quot;color: #b5cea8&quot;&gt;3&lt;/span&gt;&lt;span style=&quot;color: #d4d4d4&quot;&gt;;&lt;/span&gt;&lt;/div&gt;&lt;/div&gt;&#10;&#10;" style="rounded=0;whiteSpace=wrap;html=1;" vertex="1" parent="1">
                    <mxGeometry x="354" y="600" width="120" height="60" as="geometry"/>
                </mxCell>
                <mxCell id="20" value="" style="edgeStyle=none;html=1;" edge="1" parent="1" source="17" target="19">
                    <mxGeometry relative="1" as="geometry"/>
                </mxCell>
                <mxCell id="45" style="edgeStyle=none;html=1;entryX=0.5;entryY=0;entryDx=0;entryDy=0;" edge="1" parent="1" source="17" target="44">
                    <mxGeometry relative="1" as="geometry">
                        <Array as="points">
                            <mxPoint x="-210" y="760"/>
                            <mxPoint x="-210" y="1790"/>
                            <mxPoint x="414" y="1790"/>
                        </Array>
                    </mxGeometry>
                </mxCell>
                <mxCell id="17" value="&#10;&#10;&lt;div style=&quot;color: rgb(212, 212, 212); background-color: rgb(30, 30, 30); font-family: consolas, &amp;quot;courier new&amp;quot;, monospace; font-weight: normal; font-size: 14px; line-height: 19px;&quot;&gt;&lt;div&gt;&lt;span style=&quot;color: #c586c0&quot;&gt;while&lt;/span&gt;&lt;span style=&quot;color: #d4d4d4&quot;&gt; (b - a &amp;gt; eps)&lt;/span&gt;&lt;/div&gt;&lt;/div&gt;&#10;&#10;" style="shape=hexagon;perimeter=hexagonPerimeter2;whiteSpace=wrap;html=1;fixedSize=1;" vertex="1" parent="1">
                    <mxGeometry x="324" y="720" width="180" height="90" as="geometry"/>
                </mxCell>
                <mxCell id="22" value="" style="edgeStyle=none;html=1;" edge="1" parent="1" source="19" target="21">
                    <mxGeometry relative="1" as="geometry"/>
                </mxCell>
                <mxCell id="19" value="&#10;&#10;&lt;div style=&quot;color: rgb(212, 212, 212); background-color: rgb(30, 30, 30); font-family: consolas, &amp;quot;courier new&amp;quot;, monospace; font-weight: normal; font-size: 14px; line-height: 19px;&quot;&gt;&lt;div&gt;&lt;span style=&quot;color: #d4d4d4&quot;&gt;c = (a + b) / &lt;/span&gt;&lt;span style=&quot;color: #b5cea8&quot;&gt;2&lt;/span&gt;&lt;span style=&quot;color: #d4d4d4&quot;&gt;;&lt;/span&gt;&lt;/div&gt;&lt;/div&gt;&#10;&#10;" style="rounded=0;whiteSpace=wrap;html=1;" vertex="1" parent="1">
                    <mxGeometry x="344" y="850" width="140" height="60" as="geometry"/>
                </mxCell>
                <mxCell id="24" value="" style="edgeStyle=none;html=1;" edge="1" parent="1" source="21" target="23">
                    <mxGeometry relative="1" as="geometry"/>
                </mxCell>
                <mxCell id="21" value="&#10;&#10;&lt;div style=&quot;color: rgb(212, 212, 212); background-color: rgb(30, 30, 30); font-family: consolas, &amp;quot;courier new&amp;quot;, monospace; font-weight: normal; font-size: 14px; line-height: 19px;&quot;&gt;&lt;div&gt;&lt;span style=&quot;color: #d4d4d4&quot;&gt;fA = &lt;/span&gt;&lt;span style=&quot;color: #b5cea8&quot;&gt;3&lt;/span&gt;&lt;span style=&quot;color: #d4d4d4&quot;&gt; * &lt;/span&gt;&lt;span style=&quot;color: #dcdcaa&quot;&gt;sin&lt;/span&gt;&lt;span style=&quot;color: #d4d4d4&quot;&gt;(&lt;/span&gt;&lt;span style=&quot;color: #dcdcaa&quot;&gt;sqrt&lt;/span&gt;&lt;span style=&quot;color: #d4d4d4&quot;&gt;(a)) + &lt;/span&gt;&lt;span style=&quot;color: #b5cea8&quot;&gt;0.35&lt;/span&gt;&lt;span style=&quot;color: #d4d4d4&quot;&gt; * a - &lt;/span&gt;&lt;span style=&quot;color: #b5cea8&quot;&gt;3.8&lt;/span&gt;&lt;span style=&quot;color: #d4d4d4&quot;&gt;;&lt;/span&gt;&lt;/div&gt;&lt;/div&gt;&#10;&#10;" style="rounded=0;whiteSpace=wrap;html=1;" vertex="1" parent="1">
                    <mxGeometry x="244" y="950" width="340" height="60" as="geometry"/>
                </mxCell>
                <mxCell id="26" value="" style="edgeStyle=none;html=1;" edge="1" parent="1" source="23" target="25">
                    <mxGeometry relative="1" as="geometry"/>
                </mxCell>
                <mxCell id="23" value="&#10;&#10;&lt;div style=&quot;color: rgb(212, 212, 212); background-color: rgb(30, 30, 30); font-family: consolas, &amp;quot;courier new&amp;quot;, monospace; font-weight: normal; font-size: 14px; line-height: 19px;&quot;&gt;&lt;div&gt;&lt;span style=&quot;color: #d4d4d4&quot;&gt;fB = &lt;/span&gt;&lt;span style=&quot;color: #b5cea8&quot;&gt;3&lt;/span&gt;&lt;span style=&quot;color: #d4d4d4&quot;&gt; * &lt;/span&gt;&lt;span style=&quot;color: #dcdcaa&quot;&gt;sin&lt;/span&gt;&lt;span style=&quot;color: #d4d4d4&quot;&gt;(&lt;/span&gt;&lt;span style=&quot;color: #dcdcaa&quot;&gt;sqrt&lt;/span&gt;&lt;span style=&quot;color: #d4d4d4&quot;&gt;(b)) + &lt;/span&gt;&lt;span style=&quot;color: #b5cea8&quot;&gt;0.35&lt;/span&gt;&lt;span style=&quot;color: #d4d4d4&quot;&gt; * b - &lt;/span&gt;&lt;span style=&quot;color: #b5cea8&quot;&gt;3.8&lt;/span&gt;&lt;span style=&quot;color: #d4d4d4&quot;&gt;;&lt;/span&gt;&lt;/div&gt;&lt;/div&gt;&#10;&#10;" style="rounded=0;whiteSpace=wrap;html=1;" vertex="1" parent="1">
                    <mxGeometry x="254" y="1070" width="320" height="60" as="geometry"/>
                </mxCell>
                <mxCell id="28" value="" style="edgeStyle=none;html=1;" edge="1" parent="1" source="25" target="27">
                    <mxGeometry relative="1" as="geometry"/>
                </mxCell>
                <mxCell id="25" value="&#10;&#10;&lt;div style=&quot;color: rgb(212, 212, 212); background-color: rgb(30, 30, 30); font-family: consolas, &amp;quot;courier new&amp;quot;, monospace; font-weight: normal; font-size: 14px; line-height: 19px;&quot;&gt;&lt;div&gt;&lt;span style=&quot;color: #d4d4d4&quot;&gt;fC = &lt;/span&gt;&lt;span style=&quot;color: #b5cea8&quot;&gt;3&lt;/span&gt;&lt;span style=&quot;color: #d4d4d4&quot;&gt; * &lt;/span&gt;&lt;span style=&quot;color: #dcdcaa&quot;&gt;sin&lt;/span&gt;&lt;span style=&quot;color: #d4d4d4&quot;&gt;(&lt;/span&gt;&lt;span style=&quot;color: #dcdcaa&quot;&gt;sqrt&lt;/span&gt;&lt;span style=&quot;color: #d4d4d4&quot;&gt;(c)) + &lt;/span&gt;&lt;span style=&quot;color: #b5cea8&quot;&gt;0.35&lt;/span&gt;&lt;span style=&quot;color: #d4d4d4&quot;&gt; * c - &lt;/span&gt;&lt;span style=&quot;color: #b5cea8&quot;&gt;3.8&lt;/span&gt;&lt;span style=&quot;color: #d4d4d4&quot;&gt;;&lt;/span&gt;&lt;/div&gt;&lt;/div&gt;&#10;&#10;" style="rounded=0;whiteSpace=wrap;html=1;" vertex="1" parent="1">
                    <mxGeometry x="229" y="1180" width="370" height="60" as="geometry"/>
                </mxCell>
                <mxCell id="30" style="edgeStyle=none;html=1;entryX=0.5;entryY=0;entryDx=0;entryDy=0;" edge="1" parent="1" source="27" target="29">
                    <mxGeometry relative="1" as="geometry">
                        <Array as="points">
                            <mxPoint x="580" y="1320"/>
                        </Array>
                    </mxGeometry>
                </mxCell>
                <mxCell id="38" value="1" style="edgeLabel;html=1;align=center;verticalAlign=middle;resizable=0;points=[];" vertex="1" connectable="0" parent="30">
                    <mxGeometry x="-0.3201" y="-3" relative="1" as="geometry">
                        <mxPoint as="offset"/>
                    </mxGeometry>
                </mxCell>
                <mxCell id="32" style="edgeStyle=none;html=1;entryX=0.5;entryY=0;entryDx=0;entryDy=0;" edge="1" parent="1" source="27" target="31">
                    <mxGeometry relative="1" as="geometry">
                        <Array as="points">
                            <mxPoint x="239" y="1320"/>
                        </Array>
                    </mxGeometry>
                </mxCell>
                <mxCell id="37" value="0" style="edgeLabel;html=1;align=center;verticalAlign=middle;resizable=0;points=[];" vertex="1" connectable="0" parent="32">
                    <mxGeometry x="-0.5048" relative="1" as="geometry">
                        <mxPoint as="offset"/>
                    </mxGeometry>
                </mxCell>
                <mxCell id="27" value="&#10;&#10;&lt;div style=&quot;color: rgb(212, 212, 212); background-color: rgb(30, 30, 30); font-family: consolas, &amp;quot;courier new&amp;quot;, monospace; font-weight: normal; font-size: 14px; line-height: 19px;&quot;&gt;&lt;div&gt;&lt;span style=&quot;color: #c586c0&quot;&gt;if&lt;/span&gt;&lt;span style=&quot;color: #d4d4d4&quot;&gt; (fA * fC &amp;lt; &lt;/span&gt;&lt;span style=&quot;color: #b5cea8&quot;&gt;0&lt;/span&gt;&lt;span style=&quot;color: #d4d4d4&quot;&gt;)&lt;/span&gt;&lt;/div&gt;&lt;/div&gt;&#10;&#10;" style="rhombus;whiteSpace=wrap;html=1;" vertex="1" parent="1">
                    <mxGeometry x="329" y="1280" width="170" height="80" as="geometry"/>
                </mxCell>
                <mxCell id="43" style="edgeStyle=none;html=1;entryX=1;entryY=0.5;entryDx=0;entryDy=0;" edge="1" parent="1" source="29" target="17">
                    <mxGeometry relative="1" as="geometry">
                        <Array as="points">
                            <mxPoint x="577" y="1640"/>
                            <mxPoint x="800" y="1640"/>
                            <mxPoint x="800" y="765"/>
                        </Array>
                    </mxGeometry>
                </mxCell>
                <mxCell id="29" value="&#10;&#10;&lt;div style=&quot;color: rgb(212, 212, 212); background-color: rgb(30, 30, 30); font-family: consolas, &amp;quot;courier new&amp;quot;, monospace; font-weight: normal; font-size: 14px; line-height: 19px;&quot;&gt;&lt;div&gt;&lt;span style=&quot;color: #d4d4d4&quot;&gt;b = c;&lt;/span&gt;&lt;/div&gt;&lt;/div&gt;&#10;&#10;" style="rounded=0;whiteSpace=wrap;html=1;" vertex="1" parent="1">
                    <mxGeometry x="520" y="1390" width="120" height="60" as="geometry"/>
                </mxCell>
                <mxCell id="34" style="edgeStyle=none;html=1;entryX=0.5;entryY=0;entryDx=0;entryDy=0;" edge="1" parent="1" source="31" target="33">
                    <mxGeometry relative="1" as="geometry">
                        <Array as="points">
                            <mxPoint x="389" y="1410"/>
                        </Array>
                    </mxGeometry>
                </mxCell>
                <mxCell id="39" value="1" style="edgeLabel;html=1;align=center;verticalAlign=middle;resizable=0;points=[];" vertex="1" connectable="0" parent="34">
                    <mxGeometry x="-0.0533" y="-4" relative="1" as="geometry">
                        <mxPoint as="offset"/>
                    </mxGeometry>
                </mxCell>
                <mxCell id="36" style="edgeStyle=none;html=1;entryX=0.5;entryY=0;entryDx=0;entryDy=0;" edge="1" parent="1" source="31" target="35">
                    <mxGeometry relative="1" as="geometry">
                        <Array as="points">
                            <mxPoint x="-11" y="1410"/>
                        </Array>
                    </mxGeometry>
                </mxCell>
                <mxCell id="40" value="0" style="edgeLabel;html=1;align=center;verticalAlign=middle;resizable=0;points=[];" vertex="1" connectable="0" parent="36">
                    <mxGeometry x="0.0667" y="2" relative="1" as="geometry">
                        <mxPoint as="offset"/>
                    </mxGeometry>
                </mxCell>
                <mxCell id="31" value="&#10;&#10;&lt;div style=&quot;color: rgb(212, 212, 212); background-color: rgb(30, 30, 30); font-family: consolas, &amp;quot;courier new&amp;quot;, monospace; font-weight: normal; font-size: 14px; line-height: 19px;&quot;&gt;&lt;div&gt;&lt;span style=&quot;color: #c586c0&quot;&gt;if&lt;/span&gt;&lt;span style=&quot;color: #d4d4d4&quot;&gt; (fC * fB &amp;lt; &lt;/span&gt;&lt;span style=&quot;color: #b5cea8&quot;&gt;0&lt;/span&gt;&lt;span style=&quot;color: #d4d4d4&quot;&gt;)&lt;/span&gt;&lt;/div&gt;&lt;/div&gt;&#10;&#10;" style="rhombus;whiteSpace=wrap;html=1;" vertex="1" parent="1">
                    <mxGeometry x="149" y="1370" width="180" height="80" as="geometry"/>
                </mxCell>
                <mxCell id="42" style="edgeStyle=none;html=1;entryX=1;entryY=0.5;entryDx=0;entryDy=0;" edge="1" parent="1" source="33" target="17">
                    <mxGeometry relative="1" as="geometry">
                        <Array as="points">
                            <mxPoint x="394" y="1640"/>
                            <mxPoint x="800" y="1640"/>
                            <mxPoint x="800" y="765"/>
                        </Array>
                    </mxGeometry>
                </mxCell>
                <mxCell id="33" value="&#10;&#10;&lt;div style=&quot;color: rgb(212, 212, 212); background-color: rgb(30, 30, 30); font-family: consolas, &amp;quot;courier new&amp;quot;, monospace; font-weight: normal; font-size: 14px; line-height: 19px;&quot;&gt;&lt;div&gt;&lt;span style=&quot;color: #d4d4d4&quot;&gt;a = c;&lt;/span&gt;&lt;/div&gt;&lt;/div&gt;&#10;&#10;" style="rounded=0;whiteSpace=wrap;html=1;" vertex="1" parent="1">
                    <mxGeometry x="329" y="1450" width="120" height="60" as="geometry"/>
                </mxCell>
                <mxCell id="41" style="edgeStyle=none;html=1;entryX=1;entryY=0.5;entryDx=0;entryDy=0;" edge="1" parent="1" source="35" target="17">
                    <mxGeometry relative="1" as="geometry">
                        <Array as="points">
                            <mxPoint x="-11" y="1640"/>
                            <mxPoint x="800" y="1640"/>
                            <mxPoint x="800" y="765"/>
                        </Array>
                    </mxGeometry>
                </mxCell>
                <mxCell id="35" value="&#10;&#10;&lt;div style=&quot;color: rgb(212, 212, 212); background-color: rgb(30, 30, 30); font-family: consolas, &amp;quot;courier new&amp;quot;, monospace; font-weight: normal; font-size: 14px; line-height: 19px;&quot;&gt;&lt;div&gt;&lt;span style=&quot;color: #d4d4d4&quot;&gt;cout &amp;lt;&amp;lt; &lt;/span&gt;&lt;span style=&quot;color: #ce9178&quot;&gt;&quot;Что-то не то !&quot;&lt;/span&gt;&lt;span style=&quot;color: #d4d4d4&quot;&gt; &amp;lt;&amp;lt; endl;&lt;/span&gt;&lt;/div&gt;&lt;/div&gt;&#10;&#10;" style="shape=parallelogram;perimeter=parallelogramPerimeter;whiteSpace=wrap;html=1;fixedSize=1;" vertex="1" parent="1">
                    <mxGeometry x="-171" y="1450" width="320" height="60" as="geometry"/>
                </mxCell>
                <mxCell id="48" value="" style="edgeStyle=none;html=1;entryX=0.5;entryY=0;entryDx=0;entryDy=0;" edge="1" parent="1" source="44" target="46">
                    <mxGeometry relative="1" as="geometry">
                        <mxPoint x="414" y="1980" as="targetPoint"/>
                    </mxGeometry>
                </mxCell>
                <mxCell id="44" value="&#10;&#10;&lt;div style=&quot;color: rgb(212, 212, 212); background-color: rgb(30, 30, 30); font-family: consolas, &amp;quot;courier new&amp;quot;, monospace; font-weight: normal; font-size: 14px; line-height: 19px;&quot;&gt;&lt;div&gt;&lt;span style=&quot;color: #d4d4d4&quot;&gt;cout &amp;lt;&amp;lt; &lt;/span&gt;&lt;span style=&quot;color: #ce9178&quot;&gt;&quot;Корни с помощью метода половинного деления &amp;nbsp;&quot;&lt;/span&gt;&lt;span style=&quot;color: #d4d4d4&quot;&gt; &amp;lt;&amp;lt; a &amp;lt;&amp;lt; &lt;/span&gt;&lt;span style=&quot;color: #ce9178&quot;&gt;&quot; , &quot;&lt;/span&gt;&lt;span style=&quot;color: #d4d4d4&quot;&gt; &amp;lt;&amp;lt; b &amp;lt;&amp;lt; &lt;/span&gt;&lt;span style=&quot;color: #ce9178&quot;&gt;&quot;;&quot;&lt;/span&gt;&lt;span style=&quot;color: #d4d4d4&quot;&gt; &amp;lt;&amp;lt; endl;&lt;/span&gt;&lt;/div&gt;&lt;/div&gt;&#10;&#10;" style="shape=parallelogram;perimeter=parallelogramPerimeter;whiteSpace=wrap;html=1;fixedSize=1;" vertex="1" parent="1">
                    <mxGeometry x="16" y="1840" width="796" height="60" as="geometry"/>
                </mxCell>
                <mxCell id="46" value="Конец" style="ellipse;whiteSpace=wrap;html=1;" vertex="1" parent="1">
                    <mxGeometry x="354" y="2030" width="120" height="50" as="geometry"/>
                </mxCell>
                <mxCell id="49" value="" style="strokeWidth=2;html=1;shape=mxgraph.flowchart.annotation_2;align=left;labelPosition=right;pointerEvents=1;" vertex="1" parent="1">
                    <mxGeometry x="499" y="1950" width="50" height="60" as="geometry"/>
                </mxCell>
                <mxCell id="50" value="&#10;&#10;&lt;div style=&quot;color: rgb(212, 212, 212); background-color: rgb(30, 30, 30); font-family: consolas, &amp;quot;courier new&amp;quot;, monospace; font-weight: normal; font-size: 14px; line-height: 19px;&quot;&gt;&lt;div&gt;&lt;span style=&quot;color: #c586c0&quot;&gt;return&lt;/span&gt;&lt;span style=&quot;color: #d4d4d4&quot;&gt; &lt;/span&gt;&lt;span style=&quot;color: #b5cea8&quot;&gt;0&lt;/span&gt;&lt;span style=&quot;color: #d4d4d4&quot;&gt;;&lt;/span&gt;&lt;/div&gt;&lt;/div&gt;&#10;&#10;" style="text;whiteSpace=wrap;html=1;" vertex="1" parent="1">
                    <mxGeometry x="540" y="1940" width="90" height="30" as="geometry"/>
                </mxCell>
                <mxCell id="51" value="" style="endArrow=none;dashed=1;html=1;entryX=0;entryY=0.5;entryDx=0;entryDy=0;entryPerimeter=0;" edge="1" parent="1" target="49">
                    <mxGeometry width="50" height="50" relative="1" as="geometry">
                        <mxPoint x="420" y="1980" as="sourcePoint"/>
                        <mxPoint x="410" y="1980" as="targetPoint"/>
                    </mxGeometry>
                </mxCell>
            </root>
        </mxGraphModel>
    </diagram>
</mxfile>